<svg width="234" height="380" viewBox="0 0 234 380" fill="none" xmlns="http://www.w3.org/2000/svg">
<path d="M234 272V294.5C221.81 308.172 199.233 327.543 157 327.992C156.503 327.997 156.003 328 155.5 328C153.388 328 151.219 327.981 149 327.937C144.516 327.849 139.83 327.66 135 327.326C132.373 327.145 129.703 326.92 127 326.645C74.2589 321.283 0 281 0 195C0 109 76.9173 61.8517 127 54.4521C129.754 54.0453 132.426 53.7284 135 53.4959C138.723 53.1597 142.241 53 145.5 53C146.68 53 147.846 53.0109 149 53.0325C151.739 53.0836 154.405 53.1945 157 53.3604C196.379 55.8782 219.37 71.0703 234 82.5V114.351C221.454 92.0969 197.983 69.5 159 69.5C158.329 69.5 157.662 69.5061 157 69.5182C154.251 69.5685 151.585 69.7227 149 69.9761C144.043 70.462 139.382 71.3126 135 72.4953C132.222 73.245 129.557 74.1283 127 75.1365C81.8836 92.9273 70.5 149.663 70.5 199.5C70.5 248.782 88.0404 293.003 127 307.23C129.573 308.17 132.239 308.979 135 309.649C139.423 310.724 144.088 311.444 149 311.781C151.12 311.926 153.287 312 155.5 312C156.003 312 156.503 311.997 157 311.992C203.139 311.489 223.447 287.829 234 272Z" fill="#ED1B23"/>
<path d="M118 0H138V380H118V0Z" fill="#ED1B23"/>
<path d="M168 0H188V380H168V0Z" fill="#ED1B23"/>
</svg>

